# xmcd
#
# Track frame offsets:
#	150
#	18787
#	36410
#	58079
#	77991
#	97282
#	117876
#	138498
#	156009
#	175778
#	197380
#	217203
#	232355
#	253080
#	270551
#	288950
#	308399
#	330609
#
# Disc length: 4443 seconds
#
# Revision: 0
# Processed by: cddbd v1.5.1PL0 Copyright (c) Steve Scherf et al.
# Submitted via: dBpowerAMP V4.0
#
DISCID=07115912
DTITLE=Whitney Houston - Disc 1 - Cool Down 
DYEAR=2000
DGENRE=Pop/Blues
TTITLE0=You Give Good Love
TTITLE1=Saving All My Love For You
TTITLE2=Greatest Love of All
TTITLE3=All At Once
TTITLE4=If You Say My Eyes Are Beautiful (Duet with Jermain Jackson)
TTITLE5=Didn't We Almost Have It All
TTITLE6=Where Do Broken Hearts Go
TTITLE7=All The Man That I Need
TTITLE8=Run To You
TTITLE9=I Have Nothing
TTITLE10=I Will Always Love You
TTITLE11=Exhale (Shoop Shoop)
TTITLE12=Why Does It Hurt So Bad
TTITLE13=I Believe In You And Me
TTITLE14=Heartbreak Hotel (Feat. Faith Evans and Kelly Price)
TTITLE15=My Love Is Your Love 
TTITLE16=Same Script, Different Cast (Duet with Deborah Cox)
TTITLE17=Could I Have This Kiss Forever (Duet with Enrique Iglesias) (Metro Mix)
EXTD=Whitney Houston - Cool Down [CD1]
EXTT0=
EXTT1=
EXTT2=
EXTT3=
EXTT4=
EXTT5=
EXTT6=
EXTT7=
EXTT8=
EXTT9=
EXTT10=
EXTT11=
EXTT12=
EXTT13=
EXTT14=
EXTT15=
EXTT16=
EXTT17=
PLAYORDER=
